PathFileType	4	(X/Y/Z)	c:/Users/goper/Files/vsCode/490R/osim_files/C15/C15_Fast_07.trc
DataRate	CameraRate	NumFrames	NumMarkers	Units                	OrigDataRate	OrigDataStartFrame	OrigNumFrames
250.00	250.00	9	36	mm	250.0	1899	2531
                Frame#	Time	LPSIS			LASIS			LTH1			LTH2			LTH3			LTH4			LLFE			LMFE			LSH1			LSH2			LSH3			LSH4			LLMAL			LMMAL			LCAL			LMTP5			LTOE			LMTP1			RPSIS			RASIS			RTH1			RTH2			RTH3			RTH4			RLFE			RMFE			RSH1			RSH2			RSH3			RSH4			RLMAL			RMMAL			RCAL			RMTP1			RTOE			RMTP5		
		X1	Y1	Z1	X2	Y2	Z2	X3	Y3	Z3	X4	Y4	Z4	X5	Y5	Z5	X6	Y6	Z6	X7	Y7	Z7	X8	Y8	Z8	X9	Y9	Z9	X10	Y10	Z10	X11	Y11	Z11	X12	Y12	Z12	X13	Y13	Z13	X14	Y14	Z14	X15	Y15	Z15	X16	Y16	Z16	X17	Y17	Z17	X18	Y18	Z18	X19	Y19	Z19	X20	Y20	Z20	X21	Y21	Z21	X22	Y22	Z22	X23	Y23	Z23	X24	Y24	Z24	X25	Y25	Z25	X26	Y26	Z26	X27	Y27	Z27	X28	Y28	Z28	X29	Y29	Z29	X30	Y30	Z30	X31	Y31	Z31	X32	Y32	Z32	X33	Y33	Z33	X34	Y34	Z34	X35	Y35	Z35	X36	Y36	Z36

1899	7.59200	-2553.50903	999.56720	288.19839	-2714.86597	974.04413	360.95053	-2594.60718	581.95557	425.57117	-2593.42603	535.47510	414.61111	-2646.35645	585.44000	425.43460	-2645.27686	539.85950	420.82867	-2594.05835	466.88223	402.29761	-2615.66016	435.50064	287.43863	-2481.38452	434.07581	405.57800	-2445.81763	404.16422	406.14975	-2518.51245	384.68616	416.07901	-2478.47583	360.75479	414.55695	-2273.33252	201.77780	351.36514	-2313.95654	197.40045	266.98495	-2218.43799	230.60071	301.55283	-2299.41553	69.60883	371.39175	-2358.59448	54.75164	314.53275	-2313.29736	61.08072	255.12476	-2563.30591	1005.26849	168.43730	-2723.58472	985.60376	114.07829	-2781.11743	630.27985	56.29743	0.00000	0.00000	0.00000	-2835.89575	651.13232	71.15633	-2849.51025	606.55481	75.81884	-2835.71777	506.55795	99.33134	-2820.06812	487.39929	213.11153	-2776.86914	392.56689	68.56756	-2782.79517	349.00400	66.29987	-2840.47485	392.10577	79.29567	-2836.86499	350.04944	74.18858	-2812.98413	91.28358	136.25880	-2845.75635	116.50351	221.58482	-2756.77490	68.77042	181.61957	-2959.19922	53.43251	222.41521	-2995.19116	77.72287	171.24458	-2936.57324	44.71331	105.80078
1900	7.59600	-2558.67285	999.77869	287.26831	-2719.79785	974.23596	360.48636	-2602.37695	581.47461	425.65405	-2601.87939	534.77283	414.57544	-2654.21484	585.19745	425.57364	-2653.75317	539.65863	421.15518	-2603.39282	466.43973	402.62729	-2625.94971	434.80847	287.85324	-2491.18701	435.25858	405.44843	-2455.16040	405.83356	406.09366	-2527.60083	385.70383	416.35547	-2487.24512	362.01328	414.74277	-2280.84912	205.65993	351.34534	-2321.36011	200.09201	267.04337	-2227.08618	236.62106	301.39374	-2302.29761	72.83105	371.35031	-2360.87207	54.98605	314.57303	-2316.01538	63.70670	255.19905	0.00000	0.00000	0.00000	-2729.01294	985.94952	113.64331	-2789.98267	631.97229	55.07497	-2800.33813	586.69684	71.40345	-2840.19775	650.81543	70.83489	-2853.52734	606.21741	75.58900	-2839.27734	506.29797	99.24409	-2822.98901	487.35873	213.02226	-2780.10229	392.92343	68.66612	-2785.86597	349.43689	67.31812	-2843.31445	391.92935	79.27084	-2839.54761	350.01974	74.13210	-2813.27368	91.32011	136.41618	-2846.96704	116.76841	222.38521	-2756.89746	68.89437	181.68816	-2959.56763	53.30399	223.07118	-2995.34644	77.16113	171.29262	-2936.65503	44.59795	105.72695
1901	7.60000	-2563.47632	1000.01422	286.29816	-2724.68774	974.38879	360.04251	-2610.18921	580.10468	424.02304	-2610.54834	534.33868	414.65872	-2662.65698	585.14160	425.96591	-2662.26855	539.67725	421.43536	-2612.66187	466.14957	402.80606	-2636.19019	434.30582	288.10861	-2501.04150	436.43283	405.36926	-2464.60962	407.41281	406.02347	-2536.75220	386.68964	416.57071	-2496.19946	363.23489	414.92709	-2288.43677	209.42532	351.28763	-2330.15869	202.65411	268.71567	-2236.16724	242.64307	301.26434	-2305.54053	76.18336	371.33463	-2363.26904	55.33549	314.62292	-2318.90381	66.39336	255.32790	-2574.45142	1006.71106	166.87492	-2734.43042	986.27405	113.25597	-2794.01538	631.94751	54.85979	-2804.30347	586.65088	71.32845	-2844.45874	650.59900	70.60935	-2857.53418	605.93542	75.37571	-2842.82422	506.14273	99.19018	-2825.76855	487.47485	212.98927	-2783.02002	393.40414	69.45641	-2788.36646	349.78177	67.25340	-2846.02197	391.75192	79.23869	-2841.97168	349.87997	74.08899	-2813.64795	91.32716	136.52426	-2847.27295	116.61247	222.59850	-2756.97998	68.97223	181.75900	-2959.69312	52.99771	223.14531	-2995.54468	76.58926	171.39441	-2936.74365	44.51035	105.66707
1902	7.60400	-2568.36304	1000.42529	285.57953	-2729.47925	974.54578	359.68829	-2618.30054	579.78528	424.08301	-2618.72339	533.62292	414.26114	-2670.43530	585.05884	426.05515	-2670.49951	539.57043	421.62228	-2622.07617	465.89453	403.00012	-2646.31104	433.91718	288.29904	-2511.04492	437.57285	405.31903	-2473.79688	409.13626	405.83286	-2545.91699	387.65219	416.65884	-2505.34229	364.38629	415.11737	-2296.36694	213.12250	351.21411	-2337.98267	205.15033	268.72873	-2245.78271	248.52602	301.14578	-2309.10352	79.58337	371.30795	-2365.94238	55.87315	314.62759	-2321.94897	69.18144	255.57384	-2580.17871	1007.21942	166.19431	-2739.76636	986.63531	112.88802	-2797.99829	632.06042	54.70020	0.00000	0.00000	0.00000	-2848.60205	650.49323	70.56810	-2861.49878	605.81549	75.33452	-2846.34448	505.96970	99.16839	-2827.25879	487.29492	212.65488	-2785.67993	393.68634	69.63518	-2789.23389	351.00977	68.12604	-2849.48975	390.00378	77.48685	-2844.34497	349.71463	74.03304	-2814.04834	91.28181	136.59328	-2847.53491	116.47147	222.78392	-2757.04785	69.02281	181.83281	-2959.81006	52.65146	223.23894	-2995.77881	75.95980	171.42418	-2936.79175	44.40912	105.59573
1903	7.60800	-2573.50122	1000.55206	284.68069	-2734.30615	974.73212	359.24249	-2626.18286	579.61047	423.71478	-2627.43433	533.31952	414.22516	-2677.99194	585.14386	425.91245	-2678.84009	539.60181	421.76312	-2631.60156	465.74609	403.19781	-2656.39697	433.71866	288.36417	-2521.17090	438.54822	405.30151	-2484.11719	410.34103	405.91568	-2553.97876	387.95871	415.76843	-2514.56201	365.52423	415.33890	-2304.49414	216.75952	351.21854	-2346.04077	207.63582	268.77939	-2255.85107	254.28453	301.08719	-2312.91968	83.11277	371.33704	-2368.84546	56.43011	314.72400	-2325.38086	72.01678	255.70738	-2585.27783	1007.81323	165.40627	-2745.04639	987.05933	112.53121	-2797.49194	630.57025	55.73684	0.00000	0.00000	0.00000	-2852.61084	650.43353	70.51482	-2865.45190	605.81940	75.26760	-2849.88281	505.87155	99.18214	-2830.71777	487.95889	212.91597	-2788.31689	393.94885	69.76344	-2792.26953	351.14084	68.21203	-2849.64185	391.20392	79.26820	-2846.54321	349.56146	73.99725	-2814.51343	91.26328	136.66068	-2847.75610	116.27350	222.95531	-2757.18726	69.02905	181.93532	-2959.90308	52.31573	223.39075	-2995.91284	75.36262	171.53589	-2936.84106	44.31537	105.54828
1904	7.61200	-2578.53735	1000.74390	283.93643	-2739.08960	974.97327	358.94147	-2634.90796	579.62970	424.66656	-2635.80762	532.94562	413.92224	-2685.33838	585.43518	426.00870	-2687.20093	539.79248	421.90088	-2641.06128	465.78586	403.27499	-2666.28735	433.65732	288.35977	-2531.31421	439.66965	405.25885	-2493.49829	411.89713	405.85059	-2563.54150	388.78827	415.94467	-2523.62378	366.94690	415.94666	-2312.86865	220.20990	351.23001	-2354.29199	210.10718	268.82480	-2266.36133	259.87387	301.09528	-2317.12109	86.73249	371.28064	-2371.61499	56.88665	314.74121	-2328.89355	74.92631	255.94209	-2590.54468	1008.45447	164.67566	-2750.20728	987.45959	112.12817	-2801.42017	630.75427	55.59082	0.00000	0.00000	0.00000	-2856.59937	650.40393	70.53285	-2869.12158	605.72546	75.24457	-2853.21533	505.73154	99.19447	-2833.44751	488.47672	212.93301	-2790.75098	394.14154	70.01193	-2793.21387	351.08130	67.07832	-2852.12939	390.98990	79.32021	-2848.81079	349.45032	74.01992	-2814.87598	91.33609	136.77405	-2848.07642	116.08151	223.15590	-2757.28101	69.05660	182.04234	-2960.07397	52.00279	223.59067	-2996.00732	74.71955	171.66150	-2936.93286	44.24598	105.49022
1905	7.61600	-2582.88916	1001.36066	283.43198	-2743.95386	975.31628	358.52252	-2642.40161	579.47382	424.11145	-2644.17847	532.71820	413.65613	-2693.85107	585.58673	425.99561	-2694.31396	539.58899	421.20865	-2650.42944	465.95160	403.33209	-2673.33105	434.10776	287.51233	-2541.35693	440.60117	405.04712	-2503.15698	413.31378	405.65982	-2574.23926	390.05801	416.88605	-2533.21069	368.02167	416.11093	-2321.12134	223.59872	351.02847	-2362.70459	212.51619	268.91281	-2277.24219	265.29221	301.12650	-2321.54272	90.33723	371.20200	-2374.59912	57.35310	314.82089	-2332.73608	77.94796	256.07724	-2595.09009	1008.87714	163.93913	-2757.16211	988.56476	111.76942	-2805.27759	630.92249	55.47622	0.00000	0.00000	0.00000	-2863.81079	651.58307	70.52946	-2872.88672	605.64545	75.24759	-2856.45483	505.61676	99.25205	-2836.13452	488.86700	212.87668	-2793.10083	394.33109	70.20819	-2795.56812	351.10580	67.44379	-2854.50049	390.71884	79.34969	-2850.83105	349.26007	74.07987	-2818.46411	93.01486	136.05605	-2847.54492	115.41929	222.90862	-2757.46265	69.08758	182.15077	-2960.26685	51.74643	223.77695	-2996.20776	74.23949	171.72960	-2936.96997	44.14331	105.46181
1906	7.62000	-2587.67358	1001.70917	282.78214	-2749.41919	975.90295	358.49429	-2650.47363	579.45264	423.75412	-2652.81567	532.73169	413.40158	-2701.74707	586.04077	426.00079	-2703.84253	540.46716	422.02066	-2659.99805	466.30646	403.40643	-2683.52295	434.60800	287.25583	-2551.41553	441.70563	404.93454	-2513.05786	414.55048	405.62082	-2583.66943	390.99506	416.79639	-2542.99536	369.11987	416.24905	-2330.04712	227.01831	351.34882	-2371.24756	214.89146	268.98434	-2288.28442	270.49649	301.00125	-2326.11914	93.97575	370.97607	-2377.86182	57.97494	314.92722	-2337.07544	81.02030	256.26807	-2600.70264	1009.90588	163.40550	-2762.25293	989.05994	111.33250	-2813.73706	632.66992	54.25403	0.00000	0.00000	0.00000	-2867.63794	651.46667	70.42403	-2876.62085	605.56879	75.22032	-2859.65820	505.45117	99.24029	-2839.08398	489.12891	212.86365	-2795.36230	394.56650	70.42606	-2797.37939	351.29922	67.60326	-2856.82251	390.50931	79.35920	-2852.83008	349.00867	74.16637	-2815.35669	91.42831	137.01013	-2847.94360	115.34976	223.11823	-2757.57153	69.12887	182.21928	-2960.42969	51.50150	223.90977	-2996.43970	73.72140	171.80945	-2937.02661	44.08233	105.46378
1907	7.62400	-2593.05127	1001.86768	281.94363	-2753.56494	976.12323	357.68704	-2658.73315	579.39209	423.93323	-2661.12842	532.78546	412.92514	-2709.63330	586.46350	426.00272	-2712.23096	541.04449	422.06088	-2669.51831	466.69730	403.40213	-2693.13770	435.08173	287.02628	-2561.52295	442.64066	404.75677	-2523.13159	415.79346	405.65372	-2592.45557	391.39746	415.66141	-2552.45386	370.13681	416.34387	-2338.82104	230.50093	351.47202	-2379.86255	217.25291	269.03711	-2299.68335	275.52380	301.39069	-2330.98047	97.49345	370.73401	-2381.39917	58.58859	315.12512	-2341.81836	84.15172	256.41476	-2605.24341	1010.47473	162.85088	-2767.24805	989.55963	110.87505	-2812.71313	631.10327	55.12239	0.00000	0.00000	0.00000	-2871.38721	651.29352	70.20517	-2880.10718	605.38470	75.13477	-2862.69434	505.32773	99.11407	-2841.14575	489.00284	212.51488	-2797.52979	394.69980	70.83350	-2799.48145	351.39767	68.12685	-2858.94971	390.25610	79.34708	-2854.64185	348.74976	74.29949	-2815.59009	91.48909	137.12993	-2848.19727	115.24417	223.25385	-2757.63892	69.25586	182.27724	-2960.54175	51.34190	224.00517	-2996.59375	73.21920	171.89774	-2937.11743	44.05719	105.44259
